<?xml version="1.0" encoding="UTF-8" standalone="no"?>
<svg
   version="1.1"
   id="Layer_1"
   x="0px"
   y="0px"
   width="100%"
   viewBox="0 0 1257 392"
   enable-background="new 0 0 1257 392"
   xml:space="preserve"
   sodipodi:docname="caise27-logo.svg"
   inkscape:version="1.4.2 (f4327f4, 2025-05-13)"
   xmlns:inkscape="http://www.inkscape.org/namespaces/inkscape"
   xmlns:sodipodi="http://sodipodi.sourceforge.net/DTD/sodipodi-0.dtd"
   xmlns="http://www.w3.org/2000/svg"
   xmlns:svg="http://www.w3.org/2000/svg"><defs
   id="defs16" /><sodipodi:namedview
   id="namedview16"
   pagecolor="#ffffff"
   bordercolor="#000000"
   borderopacity="0.25"
   inkscape:showpageshadow="2"
   inkscape:pageopacity="0.0"
   inkscape:pagecheckerboard="0"
   inkscape:deskcolor="#d1d1d1"
   inkscape:zoom="1.0249392"
   inkscape:cx="649.30682"
   inkscape:cy="107.32344"
   inkscape:window-width="1920"
   inkscape:window-height="1112"
   inkscape:window-x="-8"
   inkscape:window-y="-8"
   inkscape:window-maximized="1"
   inkscape:current-layer="layer1" />

<path
   fill="#D71921"
   opacity="1.000000"
   stroke="none"
   d=" M248.292862,218.324051   C261.468842,177.373428 274.417358,136.765259 287.415833,96.000359   C302.401581,96.000359 317.220612,96.058617 332.038361,95.947517   C334.757874,95.927139 335.510254,97.081558 336.298218,99.503937   C348.295319,136.384705 360.494812,173.199585 372.538147,210.065414   C380.868561,235.565552 389.040833,261.117432 397.259460,286.654022   C398.292542,289.863983 399.177094,293.121704 400.314667,296.982544   C387.068115,296.982544 374.303833,297.053955 361.544556,296.834259   C360.618439,296.818268 359.312225,294.823517 358.885040,293.518860   C353.151917,276.008911 347.545074,258.457703 341.893280,240.921051   C341.807404,240.654602 341.549835,240.443481 341.322449,240.139908   C320.734283,240.139908 300.098511,240.139908 279.343536,240.139908   C273.873474,258.315582 268.486420,276.413361 262.862518,294.437225   C262.504425,295.584869 260.319061,296.866669 258.964294,296.888672   C247.140930,297.080750 235.313141,296.999603 223.147186,296.999603   C231.507248,270.718872 239.786316,244.692688 248.292862,218.324051  M300.942169,163.270905   C295.833282,179.334564 290.724365,195.398224 285.509796,211.794205   C302.566376,211.794205 318.678497,211.794205 335.043610,211.794205   C326.590240,183.897552 318.214600,156.257431 309.755737,128.342697   C306.836426,139.715378 303.919250,151.079895 300.942169,163.270905  z"
   id="path2" />

<path
   fill="#D71921"
   opacity="1.000000"
   stroke="none"
   d=" M719.000000,126.999969   C710.193420,126.999969 701.886841,126.999969 693.291626,126.999969   C693.291626,143.683212 693.291626,160.079376 693.291626,176.943115   C718.409424,176.943115 743.475220,176.943115 768.768005,176.943115   C768.768005,187.350342 768.768005,197.296295 768.768005,207.709778   C743.826660,207.709778 718.760803,207.709778 693.348572,207.709778   C693.348572,227.233795 693.348572,246.297302 693.348572,265.828613   C721.294067,265.828613 749.359253,265.828613 777.710632,265.828613   C777.710632,276.353577 777.710632,286.416870 777.710632,296.741272   C737.250061,296.741272 696.855408,296.741272 656.230225,296.741272   C656.230225,229.978897 656.230225,163.369766 656.230225,96.380234   C694.837891,96.380234 733.566895,96.380234 772.648438,96.380234   C772.648438,106.224403 772.648438,116.289597 772.648438,126.999969   C755.017639,126.999969 737.258850,126.999969 719.000000,126.999969  z"
   id="path4" />
<path
   fill="#D71921"
   opacity="1.000000"
   stroke="none"
   d=" M498.676697,290.276062   C493.666107,288.975098 492.343567,286.509796 493.906738,281.703400   C496.648651,273.272369 498.789612,264.645905 501.045197,256.590942   C510.520966,259.957642 519.571960,263.999329 529.042908,266.346771   C543.619934,269.959747 558.530518,271.330994 572.476257,263.755066   C586.747986,256.002045 590.638611,237.501755 578.821106,225.230515   C571.300293,217.420914 561.683472,213.646545 551.925293,209.956650   C536.332397,204.060516 521.087341,197.612122 509.435944,184.968613   C498.155396,172.727554 494.429565,158.548737 496.784729,142.105255   C498.452118,130.463943 503.252197,120.688629 511.190186,112.428596   C519.133423,104.163109 529.158569,99.006584 540.131042,96.165695   C546.857300,94.424217 553.904297,93.802574 560.847107,93.040726   C577.831116,91.177017 594.202698,94.011841 610.114441,99.964134   C610.720642,100.190918 611.405884,100.226509 611.987122,100.495926   C613.298035,101.103477 614.566833,101.801796 616.197327,102.640419   C613.182983,112.804970 610.179443,122.933052 607.422913,132.228287   C597.786133,129.485977 588.973145,126.031975 579.843323,124.606323   C566.815430,122.571983 553.546814,121.931091 542.160767,130.970535   C533.366821,137.952011 531.070251,151.400604 538.833923,160.329254   C546.287659,168.901489 556.443604,172.942627 566.599426,177.014008   C578.458801,181.768326 590.374329,186.398285 600.855225,193.965530   C612.989319,202.726395 620.764648,214.054306 623.081360,229.138916   C625.575500,245.378723 622.770386,260.207520 613.063416,273.599335   C604.759583,285.055237 593.213745,291.867401 580.017517,295.882355   C564.576843,300.580200 548.762817,301.013458 532.755005,299.117188   C521.074646,297.733521 509.699982,295.533173 498.676697,290.276062  z"
   id="path5" />
<path
   fill="#D71921"
   opacity="1.000000"
   stroke="none"
   d=" M116.805359,256.295807   C143.719208,273.090668 171.458160,270.564758 200.130859,261.409332   C202.117325,271.241272 204.158539,281.344208 206.176636,291.332733   C185.161194,299.946930 163.522751,301.323303 141.895172,299.775787   C116.187653,297.936340 92.853561,289.298065 75.084648,269.484283   C62.980503,255.987244 55.399719,240.078812 53.122940,222.065826   C51.763363,211.309357 50.664963,200.342575 51.213127,189.560028   C52.278114,168.611282 58.281704,149.019424 71.378410,132.139130   C88.665520,109.857819 111.627136,97.733643 139.386551,93.942436   C159.571106,91.185753 179.413284,92.304565 198.972015,97.990143   C201.896164,98.840172 204.700378,100.102814 207.611038,101.193672   C205.361389,110.272789 203.211884,119.173347 200.924606,128.038361   C200.257782,130.622849 198.786835,131.771851 195.861923,130.461395   C181.711136,124.121330 166.629578,123.034370 151.536118,124.165596   C136.113556,125.321487 122.098595,131.073853 110.772224,141.872437   C101.628586,150.589996 95.713943,161.585327 93.171768,173.880157   C88.698257,195.515594 89.138832,216.836777 99.977699,236.940079   C104.084007,244.556229 109.502678,250.990631 116.805359,256.295807  z"
   id="path6" />
<path
   fill="#D71921"
   opacity="1.000000"
   stroke="none"
   d=" M1027.806763,118.310402   C1039.518677,132.832047 1041.651855,149.641830 1039.776001,166.869614   C1038.287598,180.540054 1032.259033,192.961075 1024.256470,204.173737   C1011.835876,221.576614 996.894592,236.673859 980.824829,250.698990   C976.028137,254.885361 971.309631,259.161255 966.093872,263.807159   C992.460571,263.807159 1018.443176,263.807159 1044.711060,263.807159   C1044.711060,274.350891 1044.711060,284.410706 1044.711060,294.736572   C1000.941040,294.736572 957.227722,294.736572 913.006653,294.736572   C913.006653,287.375793 912.811157,280.091980 913.158264,272.834076   C913.235046,271.227875 915.001526,269.463562 916.382019,268.200745   C921.839417,263.208923 927.643127,258.585785 932.971130,253.464554   C947.101562,239.882675 961.474182,226.513321 974.942810,212.294434   C986.234009,200.374237 996.611267,187.537231 1001.355225,171.222046   C1004.878723,159.104126 1002.984863,147.765182 995.250916,138.054260   C990.861938,132.543350 984.069885,130.018661 976.908203,128.968628   C959.917358,126.477448 945.389954,132.457169 931.757507,141.733322   C930.449524,142.623367 929.069519,143.407547 927.271240,144.520370   C923.552429,135.602249 920.021606,127.135063 916.309326,118.232643   C922.714600,111.472946 931.345947,107.627716 939.975586,104.142242   C955.009094,98.070282 970.962097,96.683273 986.888123,98.184410   C1002.671021,99.672043 1016.912354,105.474777 1027.806763,118.310402  z"
   id="path7" />
<path
   fill="#D71921"
   opacity="1.000000"
   stroke="none"
   d=" M462.000000,213.000000   C462.000000,241.120529 462.000000,268.741058 462.000000,296.680481   C449.382935,296.680481 436.993713,296.680481 424.301056,296.680481   C424.301056,248.366928 424.301056,200.003433 424.301056,151.319672   C436.616669,151.319672 449.005737,151.319672 462.000000,151.319672   C462.000000,171.676529 462.000000,192.088272 462.000000,213.000000  z"
   id="path8" />
<path
   fill="#D71921"
   opacity="1.000000"
   stroke="none"
   d=" M836.680786,161.724182   C841.421875,149.297241 845.474121,137.018753 850.545715,125.176804   C854.996399,114.784752 860.479431,104.823280 865.804749,94.830536   C866.554321,93.423973 868.924988,92.327187 870.673767,92.106987   C876.936951,91.318382 883.255249,90.968376 889.490845,90.457573   C882.938293,115.675415 876.349548,141.032822 869.616821,166.944061   C858.867737,167.707794 847.103455,168.543655 834.769653,169.419968   C835.453308,166.399353 835.944092,164.230850 836.680786,161.724182  z"
   id="path9" />
<path
   fill="#D81E24"
   opacity="1.000000"
   stroke="none"
   d=" M480.008667,66.343994   C480.008667,78.785278 480.123230,90.776283 479.876190,102.759834   C479.841919,104.421364 478.416840,106.834946 476.965118,107.562454   C465.829712,113.142662 454.528412,118.391777 442.371399,124.175346   C442.371399,121.928238 442.371368,120.232849 442.371368,118.537460   C442.371399,107.214851 442.302673,95.891350 442.450043,84.570656   C442.470734,82.979622 443.084198,80.584984 444.209686,79.944756   C455.861786,73.316338 467.675446,66.971878 480.008667,60.240356   C480.008667,62.631660 480.008667,64.261505 480.008667,66.343994  z"
   id="path10" />
<path
   fill="#16477E"
   opacity="1.000000"
   stroke="none"
   d=" M438.238525,87.153419   C438.238586,99.569855 438.238586,111.506126 438.238586,124.171562   C425.959656,118.285286 414.298218,112.742958 402.711578,107.048439   C401.796906,106.598915 400.856598,105.096260 400.847931,104.075241   C400.726715,89.795845 400.765686,75.515091 400.765686,60.275631   C406.329865,63.312523 411.220123,65.983551 416.112274,68.651184   C421.796967,71.750969 427.337006,75.170441 433.218506,77.836365   C437.383331,79.724174 439.015167,82.331337 438.238525,87.153419  z"
   id="path11" />
<path
   fill="#0B0B0E"
   opacity="1.000000"
   stroke="none"
   d=" M442.548096,77.823456   C437.862152,76.009811 433.414581,74.248009 429.231781,71.994698   C420.898529,67.505508 412.699677,62.765728 404.474091,58.078896   C403.137939,57.317562 401.949738,56.296566 400.323334,55.130444   C413.859650,48.455921 426.737946,42.088200 439.649017,35.787556   C440.355621,35.442707 441.496033,35.330223 442.163727,35.659195   C455.121796,42.043510 468.039490,48.509789 481.808289,55.379780   C468.344574,63.088371 455.625397,70.370697 442.548096,77.823456  M471.490112,58.090935   C472.903931,57.265907 474.317749,56.440880 476.073181,55.416504   C464.747803,49.809917 453.774445,44.345993 442.752777,38.981384   C441.871368,38.552380 440.460968,38.404373 439.625854,38.807793   C428.397491,44.231899 417.227692,49.777267 405.528351,55.546535   C416.982819,61.963169 427.779480,68.128906 438.734619,73.998886   C440.099396,74.730179 442.619781,74.475929 444.067841,73.689636   C453.097382,68.786644 461.974060,63.602188 471.490112,58.090935  z"
   id="path12" />



<path
   fill="#FCFCFD"
   opacity="1.000000"
   stroke="none"
   d=" M471.195740,58.300968   C461.974060,63.602188 453.097382,68.786644 444.067841,73.689636   C442.619781,74.475929 440.099396,74.730179 438.734619,73.998886   C427.779480,68.128906 416.982819,61.963169 405.528351,55.546535   C417.227692,49.777267 428.397491,44.231899 439.625854,38.807793   C440.460968,38.404373 441.871368,38.552380 442.752777,38.981384   C453.774445,44.345993 464.747803,49.809917 476.073181,55.416504   C474.317749,56.440880 472.903931,57.265907 471.195740,58.300968  z"
   id="path16" />
<g
   inkscape:groupmode="layer"
   id="layer1"
   inkscape:label="Layer 1"><text
     xml:space="preserve"
     style="text-align:start;writing-mode:lr-tb;direction:ltr;text-anchor:start;fill:#d71921;fill-opacity:1"
     x="1053.4792"
     y="293.89792"
     id="text16"><tspan
       id="tspan16"
       x="1053.4792"
       y="293.89792"
       style="font-style:normal;font-variant:normal;font-weight:bold;font-stretch:normal;font-size:266.667px;font-family:Arial;-inkscape-font-specification:'Arial, Bold';font-variant-ligatures:normal;font-variant-caps:normal;font-variant-numeric:normal;font-variant-east-asian:normal;fill:#d71921;fill-opacity:1"
       sodipodi:role="line">7</tspan></text></g></svg>
